<?xml version="1.0" standalone="no"?><!DOCTYPE svg PUBLIC "-//W3C//DTD SVG 1.1//EN" "http://www.w3.org/Graphics/SVG/1.1/DTD/svg11.dtd"><svg xmlns:xlink="http://www.w3.org/1999/xlink" version="1.1" class="highcharts-root" style="font-family:&quot;Lucida Grande&quot;, &quot;Lucida Sans Unicode&quot;, Arial, Helvetica, sans-serif;font-size:12px;" xmlns="http://www.w3.org/2000/svg" width="600" height="350" viewBox="0 0 600 350"><desc>Created with Highcharts 8.2.2</desc><defs><clipPath id="highcharts-dixpxsg-29-"><rect x="0" y="0" width="529" height="266" fill="none"></rect></clipPath></defs><rect fill="#ffffff" class="highcharts-background" x="0" y="0" width="600" height="350" rx="0" ry="0"></rect><rect fill="none" class="highcharts-plot-background" x="61" y="10" width="529" height="266"></rect><g class="highcharts-pane-group" data-z-index="0"></g><g class="highcharts-grid highcharts-xaxis-grid" data-z-index="1"><path fill="none" data-z-index="1" class="highcharts-grid-line" d="M 118.5 10 L 118.5 276" opacity="1"></path><path fill="none" data-z-index="1" class="highcharts-grid-line" d="M 207.5 10 L 207.5 276" opacity="1"></path><path fill="none" data-z-index="1" class="highcharts-grid-line" d="M 297.5 10 L 297.5 276" opacity="1"></path><path fill="none" data-z-index="1" class="highcharts-grid-line" d="M 386.5 10 L 386.5 276" opacity="1"></path><path fill="none" data-z-index="1" class="highcharts-grid-line" d="M 476.5 10 L 476.5 276" opacity="1"></path><path fill="none" data-z-index="1" class="highcharts-grid-line" d="M 566.5 10 L 566.5 276" opacity="1"></path></g><g class="highcharts-grid highcharts-yaxis-grid" data-z-index="1"><path fill="none" stroke="#e6e6e6" stroke-width="1" data-z-index="1" class="highcharts-grid-line" d="M 61 276.5 L 590 276.5" opacity="1"></path><path fill="none" stroke="#e6e6e6" stroke-width="1" data-z-index="1" class="highcharts-grid-line" d="M 61 223.5 L 590 223.5" opacity="1"></path><path fill="none" stroke="#e6e6e6" stroke-width="1" data-z-index="1" class="highcharts-grid-line" d="M 61 170.5 L 590 170.5" opacity="1"></path><path fill="none" stroke="#e6e6e6" stroke-width="1" data-z-index="1" class="highcharts-grid-line" d="M 61 116.5 L 590 116.5" opacity="1"></path><path fill="none" stroke="#e6e6e6" stroke-width="1" data-z-index="1" class="highcharts-grid-line" d="M 61 63.5 L 590 63.5" opacity="1"></path><path fill="none" stroke="#e6e6e6" stroke-width="1" data-z-index="1" class="highcharts-grid-line" d="M 61 9.5 L 590 9.5" opacity="1"></path></g><rect fill="none" class="highcharts-plot-border" data-z-index="1" x="61" y="10" width="529" height="266"></rect><g class="highcharts-axis highcharts-xaxis" data-z-index="2"><path fill="none" class="highcharts-tick" stroke="#ccd6eb" stroke-width="1" d="M 118.5 276 L 118.5 286" opacity="1"></path><path fill="none" class="highcharts-tick" stroke="#ccd6eb" stroke-width="1" d="M 207.5 276 L 207.5 286" opacity="1"></path><path fill="none" class="highcharts-tick" stroke="#ccd6eb" stroke-width="1" d="M 297.5 276 L 297.5 286" opacity="1"></path><path fill="none" class="highcharts-tick" stroke="#ccd6eb" stroke-width="1" d="M 386.5 276 L 386.5 286" opacity="1"></path><path fill="none" class="highcharts-tick" stroke="#ccd6eb" stroke-width="1" d="M 476.5 276 L 476.5 286" opacity="1"></path><path fill="none" class="highcharts-tick" stroke="#ccd6eb" stroke-width="1" d="M 566.5 276 L 566.5 286" opacity="1"></path><path fill="none" class="highcharts-axis-line" stroke="#ccd6eb" stroke-width="1" data-z-index="7" d="M 61 276.5 L 590 276.5"></path></g><g class="highcharts-axis highcharts-yaxis" data-z-index="2"><text x="23.75" data-z-index="7" text-anchor="middle" transform="translate(0,0) rotate(270 23.75 143)" class="highcharts-axis-title" style="color:#666666;font-size:12px;fill:#666666;" y="143"><tspan>J&amp;F</tspan></text><path fill="none" class="highcharts-axis-line" data-z-index="7" d="M 61 10 L 61 276"></path></g><g class="highcharts-series-group" data-z-index="3"><g class="highcharts-series highcharts-series-0 highcharts-scatter-series" visibility="hidden" data-z-index="1" opacity="1" transform="translate(61,10) scale(1 1)" clip-path="url(#highcharts-dixpxsg-29-)"></g><g class="highcharts-markers highcharts-series-0 highcharts-scatter-series" visibility="hidden" data-z-index="1" opacity="1" transform="translate(61,10) scale(1 1)" clip-path="none"></g><g class="highcharts-series highcharts-series-1 highcharts-line-series" data-z-index="2" opacity="1" transform="translate(61,10) scale(1 1)" clip-path="url(#highcharts-dixpxsg-29-)"><path fill="none" d="M 5.1862745098039 231.68599999999998 L 50.060422750661 185.13599999999997 L 144.71299772864 117.30599999999998 L 151.82420154823 117.03999999999999 L 173.89345478144 85.12 L 229.31180178927 68.894 L 307.78025772957 67.564 L 363.44381866222 60.914000000000016 L 398.99983776016 47.34800000000001 L 432.5941454596 44.95400000000001 L 474.28051267788 29.25999999999999 L 523.8137254902 23.408000000000015" class="highcharts-graph" data-z-index="1" stroke="#21ccc7" stroke-width="2" stroke-linejoin="round" stroke-linecap="round"></path></g><g class="highcharts-markers highcharts-series-1 highcharts-line-series" data-z-index="2" opacity="1" transform="translate(61,10) scale(1 1)" clip-path="none"><path fill="#21ccc7" d="M 5 236 A 4 4 0 1 1 5.0039999993333355 235.99999800000018 Z" opacity="1" class="highcharts-point"></path><path fill="#21ccc7" d="M 50 189 A 4 4 0 1 1 50.00399999933334 188.99999800000018 Z" opacity="1" class="highcharts-point"></path><path fill="#21ccc7" d="M 144 121 A 4 4 0 1 1 144.00399999933333 120.99999800000016 Z" opacity="1" class="highcharts-point"></path><path fill="#21ccc7" d="M 151 121 A 4 4 0 1 1 151.00399999933333 120.99999800000016 Z" opacity="1" class="highcharts-point"></path><path fill="#21ccc7" d="M 173 89 A 4 4 0 1 1 173.00399999933333 88.99999800000016 Z" opacity="1" class="highcharts-point"></path><path fill="#21ccc7" d="M 229 73 A 4 4 0 1 1 229.00399999933333 72.99999800000016 Z" opacity="1" class="highcharts-point"></path><path fill="#21ccc7" d="M 307 72 A 4 4 0 1 1 307.00399999933336 71.99999800000016 Z" opacity="1" class="highcharts-point"></path><path fill="#21ccc7" d="M 363 65 A 4 4 0 1 1 363.00399999933336 64.99999800000016 Z" opacity="1" class="highcharts-point"></path><path fill="#21ccc7" d="M 398 51 A 4 4 0 1 1 398.00399999933336 50.99999800000017 Z" opacity="1" class="highcharts-point"></path><path fill="#21ccc7" d="M 432 49 A 4 4 0 1 1 432.00399999933336 48.99999800000017 Z" opacity="1" class="highcharts-point"></path><path fill="#21ccc7" d="M 474 33 A 4 4 0 1 1 474.00399999933336 32.99999800000017 Z" opacity="1" class="highcharts-point"></path><path fill="#21ccc7" d="M 523 27 A 4 4 0 1 1 523.0039999993334 26.99999800000017 Z" opacity="1" class="highcharts-point"></path></g></g><g class="highcharts-data-labels highcharts-series-1 highcharts-line-series" data-z-index="3" opacity="1" transform="translate(61,10) scale(1 1)"><g class="highcharts-label highcharts-data-label highcharts-data-label-color-undefined" data-z-index="1" transform="translate(-5,211)"><text x="5" data-z-index="1" y="16" style="color:#4a4a4a;font-size:11px;font-weight:normal;fill:#4a4a4a;"><tspan x="5" y="16" class="highcharts-text-outline" fill="#FFFFFF" stroke="#FFFFFF" stroke-width="2px" stroke-linejoin="round" style="">CVOS</tspan><tspan x="5" y="16">CVOS</tspan></text></g><g class="highcharts-label highcharts-data-label highcharts-data-label-color-undefined" data-z-index="1" transform="translate(34,164)"><text x="5" data-z-index="1" y="16" style="color:#4a4a4a;font-size:11px;font-weight:normal;fill:#4a4a4a;"><tspan x="5" y="16" class="highcharts-text-outline" fill="#FFFFFF" stroke="#FFFFFF" stroke-width="2px" stroke-linejoin="round" style="">CUT</tspan><tspan x="5" y="16">CUT</tspan></text></g><g class="highcharts-label highcharts-data-label highcharts-data-label-color-undefined" data-z-index="1" transform="translate(128,96)"><text x="5" data-z-index="1" y="16" style="color:#4a4a4a;font-size:11px;font-weight:normal;fill:#4a4a4a;"><tspan x="5" y="16" class="highcharts-text-outline" fill="#FFFFFF" stroke="#FFFFFF" stroke-width="2px" stroke-linejoin="round" style="">LMP</tspan><tspan x="5" y="16">LMP</tspan></text></g><g class="highcharts-label highcharts-data-label highcharts-data-label-color-undefined highcharts-data-label-hidden" data-z-index="1" transform="translate(132,96)" opacity="0" style="pointer-events:none;"><text x="5" data-z-index="1" y="16" style="color:#4a4a4a;font-size:11px;font-weight:normal;fill:#4a4a4a;"><tspan x="5" y="16" class="highcharts-text-outline" fill="#FFFFFF" stroke="#FFFFFF" stroke-width="2px" stroke-linejoin="round" style="">FSEG</tspan><tspan x="5" y="16">FSEG</tspan></text></g><g class="highcharts-label highcharts-data-label highcharts-data-label-color-undefined" data-z-index="1" transform="translate(158,64)"><text x="5" data-z-index="1" y="16" style="color:#4a4a4a;font-size:11px;font-weight:normal;fill:#4a4a4a;"><tspan x="5" y="16" class="highcharts-text-outline" fill="#FFFFFF" stroke="#FFFFFF" stroke-width="2px" stroke-linejoin="round" style="">LVO</tspan><tspan x="5" y="16">LVO</tspan></text></g><g class="highcharts-label highcharts-data-label highcharts-data-label-color-undefined" data-z-index="1" transform="translate(209,48)"><text x="5" data-z-index="1" y="16" style="color:#4a4a4a;font-size:11px;font-weight:normal;fill:#4a4a4a;"><tspan x="5" y="16" class="highcharts-text-outline" fill="#FFFFFF" stroke="#FFFFFF" stroke-width="2px" stroke-linejoin="round" style="">LSMO</tspan><tspan x="5" y="16">LSMO</tspan></text></g><g class="highcharts-label highcharts-data-label highcharts-data-label-color-undefined" data-z-index="1" transform="translate(276,47)"><text x="5" data-z-index="1" y="16" style="color:#4a4a4a;font-size:11px;font-weight:normal;fill:#4a4a4a;"><tspan x="5" y="16" class="highcharts-text-outline" fill="#FFFFFF" stroke="#FFFFFF" stroke-width="2px" stroke-linejoin="round" style="">MOTAdapt</tspan><tspan x="5" y="16">MOTAdapt</tspan></text></g><g class="highcharts-label highcharts-data-label highcharts-data-label-color-undefined" data-z-index="1" transform="translate(347,40)"><text x="5" data-z-index="1" y="16" style="color:#4a4a4a;font-size:11px;font-weight:normal;fill:#4a4a4a;"><tspan x="5" y="16" class="highcharts-text-outline" fill="#FFFFFF" stroke="#FFFFFF" stroke-width="2px" stroke-linejoin="round" style="">AGS</tspan><tspan x="5" y="16">AGS</tspan></text></g><g class="highcharts-label highcharts-data-label highcharts-data-label-color-undefined" data-z-index="1" transform="translate(379,26)"><text x="5" data-z-index="1" y="16" style="color:#4a4a4a;font-size:11px;font-weight:normal;fill:#4a4a4a;"><tspan x="5" y="16" class="highcharts-text-outline" fill="#FFFFFF" stroke="#FFFFFF" stroke-width="2px" stroke-linejoin="round" style="">AnDiff</tspan><tspan x="5" y="16">AnDiff</tspan></text></g><g class="highcharts-label highcharts-data-label highcharts-data-label-color-undefined highcharts-data-label-hidden" data-z-index="1" transform="translate(408,24)" opacity="0" style="pointer-events:none;"><text x="5" data-z-index="1" y="16" style="color:#4a4a4a;font-size:11px;font-weight:normal;fill:#4a4a4a;"><tspan x="5" y="16" class="highcharts-text-outline" fill="#FFFFFF" stroke="#FFFFFF" stroke-width="2px" stroke-linejoin="round" style="">MATNet</tspan><tspan x="5" y="16">MATNet</tspan></text></g><g class="highcharts-label highcharts-data-label highcharts-data-label-color-undefined" data-z-index="1" transform="translate(447,8)"><text x="5" data-z-index="1" y="16" style="color:#4a4a4a;font-size:11px;font-weight:normal;fill:#4a4a4a;"><tspan x="5" y="16" class="highcharts-text-outline" fill="#FFFFFF" stroke="#FFFFFF" stroke-width="2px" stroke-linejoin="round" style="">3DC-Seg</tspan><tspan x="5" y="16">3DC-Seg</tspan></text></g><g class="highcharts-label highcharts-data-label highcharts-data-label-color-undefined" data-z-index="1" transform="translate(493,2)"><text x="5" data-z-index="1" y="16" style="color:#4a4a4a;font-size:11px;font-weight:normal;fill:#4a4a4a;"><tspan x="5" y="16" class="highcharts-text-outline" fill="#FFFFFF" stroke="#FFFFFF" stroke-width="2px" stroke-linejoin="round" style="">HCPN</tspan><tspan x="5" y="16">HCPN</tspan></text></g></g><text x="300" text-anchor="middle" class="highcharts-title" data-z-index="4" style="color:#333333;font-size:18px;fill:#333333;" y="24"></text><text x="300" text-anchor="middle" class="highcharts-subtitle" data-z-index="4" style="color:#666666;fill:#666666;" y="24"></text><text x="10" text-anchor="start" class="highcharts-caption" data-z-index="4" style="color:#666666;fill:#666666;" y="347"></text><g class="highcharts-legend" data-z-index="7" transform="translate(143,308)"><rect fill="#ffffff" class="highcharts-legend-box" rx="0" ry="0" x="0" y="0" width="313" height="27" visibility="visible"></rect><g data-z-index="1"><g><g class="highcharts-legend-item highcharts-scatter-series highcharts-color-undefined highcharts-series-0 highcharts-legend-item-hidden" data-z-index="1" transform="translate(8,3)"><path fill="none" d="M 0 13 L 16 13" class="highcharts-graph"></path><path fill="#cccccc" d="M 8 17 A 4 4 0 1 1 8.003999999333336 16.99999800000017 Z" class="highcharts-point" opacity="1"></path><text x="21" style="color:#cccccc;cursor:pointer;font-size:14px;font-weight:normal;fill:#cccccc;" text-anchor="start" data-z-index="2" y="17"><tspan>Other models</tspan></text></g><g class="highcharts-legend-item highcharts-line-series highcharts-color-undefined highcharts-series-1" data-z-index="1" transform="translate(133.046875,3)"><path fill="none" d="M 0 13 L 16 13" class="highcharts-graph" stroke="#21ccc7" stroke-width="2"></path><path fill="#21ccc7" d="M 8 17 A 4 4 0 1 1 8.003999999333336 16.99999800000017 Z" class="highcharts-point" opacity="1"></path><text x="21" y="17" style="color:#414141;cursor:pointer;font-size:14px;font-weight:normal;fill:#414141;" text-anchor="start" data-z-index="2"><tspan>Models with highest J&amp;F</tspan></text></g></g></g></g><g class="highcharts-axis-labels highcharts-xaxis-labels" data-z-index="7"><text x="118.66205441988" style="color:#666666;cursor:default;font-size:11px;fill:#666666;" text-anchor="middle" transform="translate(0,0)" y="295" opacity="1">2016</text><text x="208.41035090159" style="color:#666666;cursor:default;font-size:11px;fill:#666666;" text-anchor="middle" transform="translate(0,0)" y="295" opacity="1">2017</text><text x="297.91343345849" style="color:#666666;cursor:default;font-size:11px;fill:#666666;" text-anchor="middle" transform="translate(0,0)" y="295" opacity="1">2018</text><text x="387.41651601539" style="color:#666666;cursor:default;font-size:11px;fill:#666666;" text-anchor="middle" transform="translate(0,0)" y="295" opacity="1">2019</text><text x="476.91959857229" style="color:#666666;cursor:default;font-size:11px;fill:#666666;" text-anchor="middle" transform="translate(0,0)" y="295" opacity="1">2020</text><text x="566.667895054" style="color:#666666;cursor:default;font-size:11px;fill:#666666;" text-anchor="middle" transform="translate(0,0)" y="295" opacity="1">2021</text></g><g class="highcharts-axis-labels highcharts-yaxis-labels" data-z-index="7"><text x="46" style="color:#666666;cursor:default;font-size:11px;fill:#666666;" text-anchor="end" transform="translate(0,0)" y="281" opacity="1">40</text><text x="46" style="color:#666666;cursor:default;font-size:11px;fill:#666666;" text-anchor="end" transform="translate(0,0)" y="228" opacity="1">50</text><text x="46" style="color:#666666;cursor:default;font-size:11px;fill:#666666;" text-anchor="end" transform="translate(0,0)" y="174" opacity="1">60</text><text x="46" style="color:#666666;cursor:default;font-size:11px;fill:#666666;" text-anchor="end" transform="translate(0,0)" y="121" opacity="1">70</text><text x="46" style="color:#666666;cursor:default;font-size:11px;fill:#666666;" text-anchor="end" transform="translate(0,0)" y="68" opacity="1">80</text><text x="46" style="color:#666666;cursor:default;font-size:11px;fill:#666666;" text-anchor="end" transform="translate(0,0)" y="15" opacity="1">90</text></g></svg>