<?xml version="1.0" standalone="no"?><!DOCTYPE svg PUBLIC "-//W3C//DTD SVG 1.1//EN" "http://www.w3.org/Graphics/SVG/1.1/DTD/svg11.dtd"><svg xmlns:xlink="http://www.w3.org/1999/xlink" version="1.1" class="highcharts-root" style="font-family:&quot;Lucida Grande&quot;, &quot;Lucida Sans Unicode&quot;, Arial, Helvetica, sans-serif;font-size:12px;" xmlns="http://www.w3.org/2000/svg" width="600" height="350" viewBox="0 0 600 350"><desc>Created with Highcharts 8.2.2</desc><defs><clipPath id="highcharts-m5fiery-15-"><rect x="0" y="0" width="529" height="266" fill="none"></rect></clipPath></defs><rect fill="#ffffff" class="highcharts-background" x="0" y="0" width="600" height="350" rx="0" ry="0"></rect><rect fill="none" class="highcharts-plot-background" x="61" y="10" width="529" height="266"></rect><g class="highcharts-pane-group" data-z-index="0"></g><g class="highcharts-grid highcharts-xaxis-grid" data-z-index="1"><path fill="none" data-z-index="1" class="highcharts-grid-line" d="M 133.5 10 L 133.5 276" opacity="1"></path><path fill="none" data-z-index="1" class="highcharts-grid-line" d="M 235.5 10 L 235.5 276" opacity="1"></path><path fill="none" data-z-index="1" class="highcharts-grid-line" d="M 338.5 10 L 338.5 276" opacity="1"></path><path fill="none" data-z-index="1" class="highcharts-grid-line" d="M 439.5 10 L 439.5 276" opacity="1"></path><path fill="none" data-z-index="1" class="highcharts-grid-line" d="M 542.5 10 L 542.5 276" opacity="1"></path></g><g class="highcharts-grid highcharts-yaxis-grid" data-z-index="1"><path fill="none" stroke="#e6e6e6" stroke-width="1" data-z-index="1" class="highcharts-grid-line" d="M 61 276.5 L 590 276.5" opacity="1"></path><path fill="none" stroke="#e6e6e6" stroke-width="1" data-z-index="1" class="highcharts-grid-line" d="M 61 223.5 L 590 223.5" opacity="1"></path><path fill="none" stroke="#e6e6e6" stroke-width="1" data-z-index="1" class="highcharts-grid-line" d="M 61 170.5 L 590 170.5" opacity="1"></path><path fill="none" stroke="#e6e6e6" stroke-width="1" data-z-index="1" class="highcharts-grid-line" d="M 61 116.5 L 590 116.5" opacity="1"></path><path fill="none" stroke="#e6e6e6" stroke-width="1" data-z-index="1" class="highcharts-grid-line" d="M 61 63.5 L 590 63.5" opacity="1"></path><path fill="none" stroke="#e6e6e6" stroke-width="1" data-z-index="1" class="highcharts-grid-line" d="M 61 9.5 L 590 9.5" opacity="1"></path></g><rect fill="none" class="highcharts-plot-border" data-z-index="1" x="61" y="10" width="529" height="266"></rect><g class="highcharts-axis highcharts-xaxis" data-z-index="2"><path fill="none" class="highcharts-tick" stroke="#ccd6eb" stroke-width="1" d="M 133.5 276 L 133.5 286" opacity="1"></path><path fill="none" class="highcharts-tick" stroke="#ccd6eb" stroke-width="1" d="M 235.5 276 L 235.5 286" opacity="1"></path><path fill="none" class="highcharts-tick" stroke="#ccd6eb" stroke-width="1" d="M 338.5 276 L 338.5 286" opacity="1"></path><path fill="none" class="highcharts-tick" stroke="#ccd6eb" stroke-width="1" d="M 439.5 276 L 439.5 286" opacity="1"></path><path fill="none" class="highcharts-tick" stroke="#ccd6eb" stroke-width="1" d="M 542.5 276 L 542.5 286" opacity="1"></path><path fill="none" class="highcharts-axis-line" stroke="#ccd6eb" stroke-width="1" data-z-index="7" d="M 61 276.5 L 590 276.5"></path></g><g class="highcharts-axis highcharts-yaxis" data-z-index="2"><text x="23.75" data-z-index="7" text-anchor="middle" transform="translate(0,0) rotate(270 23.75 143)" class="highcharts-axis-title" style="color:#666666;font-size:12px;fill:#666666;" y="143"><tspan>J&amp;F</tspan></text><path fill="none" class="highcharts-axis-line" data-z-index="7" d="M 61 10 L 61 276"></path></g><g class="highcharts-series-group" data-z-index="3"><g class="highcharts-series highcharts-series-0 highcharts-scatter-series" data-z-index="1" opacity="1" transform="translate(61,10) scale(1 1)" clip-path="url(#highcharts-m5fiery-15-)"></g><g class="highcharts-markers highcharts-series-0 highcharts-scatter-series" data-z-index="1" opacity="1" transform="translate(61,10) scale(1 1)" clip-path="none"><path fill="#ddd" d="M 113 210 A 4 4 0 1 1 113.00399999933333 209.99999800000018 Z" opacity="1" class="highcharts-point"></path><path fill="#ddd" d="M 157 124 A 4 4 0 1 1 157.00399999933333 123.99999800000016 Z" opacity="1" class="highcharts-point"></path><path fill="#ddd" d="M 324 85 A 4 4 0 1 1 324.00399999933336 84.99999800000016 Z" opacity="1" class="highcharts-point"></path><path fill="#ddd" d="M 359 119 A 4 4 0 1 1 359.00399999933336 118.99999800000016 Z" opacity="1" class="highcharts-point"></path><path fill="#ddd" d="M 407 118 A 4 4 0 1 1 407.00399999933336 117.99999800000016 Z" opacity="1" class="highcharts-point"></path></g><g class="highcharts-series highcharts-series-1 highcharts-line-series" data-z-index="2" opacity="1" transform="translate(61,10) scale(1 1)" clip-path="url(#highcharts-m5fiery-15-)"><path fill="none" d="M 5.1862745098039 132.468 L 153.44547031326 64.37199999999996 L 523.8137254902 49.47599999999997" class="highcharts-graph" data-z-index="1" stroke="#21ccc7" stroke-width="2" stroke-linejoin="round" stroke-linecap="round"></path></g><g class="highcharts-markers highcharts-series-1 highcharts-line-series" data-z-index="2" opacity="1" transform="translate(61,10) scale(1 1)" clip-path="none"><path fill="#21ccc7" d="M 5 136 A 4 4 0 1 1 5.0039999993333355 135.99999800000018 Z" opacity="1" class="highcharts-point"></path><path fill="#21ccc7" d="M 153 68 A 4 4 0 1 1 153.00399999933333 67.99999800000016 Z" opacity="1" class="highcharts-point"></path><path fill="#21ccc7" d="M 523 53 A 4 4 0 1 1 523.0039999993334 52.99999800000017 Z" opacity="1" class="highcharts-point"></path></g></g><g class="highcharts-data-labels highcharts-series-1 highcharts-line-series" data-z-index="3" opacity="1" transform="translate(61,10) scale(1 1)"><g class="highcharts-label highcharts-data-label highcharts-data-label-color-undefined" data-z-index="1" transform="translate(-5,111)"><text x="5" data-z-index="1" y="16" style="color:#4a4a4a;font-size:11px;font-weight:normal;fill:#4a4a4a;"><tspan x="5" y="16" class="highcharts-text-outline" fill="#FFFFFF" stroke="#FFFFFF" stroke-width="2px" stroke-linejoin="round" style="">PDB</tspan><tspan x="5" y="16">PDB</tspan></text></g><g class="highcharts-label highcharts-data-label highcharts-data-label-color-undefined" data-z-index="1" transform="translate(122,43)"><text x="5" data-z-index="1" y="16" style="color:#4a4a4a;font-size:11px;font-weight:normal;fill:#4a4a4a;"><tspan x="5" y="16" class="highcharts-text-outline" fill="#FFFFFF" stroke="#FFFFFF" stroke-width="2px" stroke-linejoin="round" style="">UnOVOST</tspan><tspan x="5" y="16">UnOVOST</tspan></text></g><g class="highcharts-label highcharts-data-label highcharts-data-label-color-undefined" data-z-index="1" transform="translate(493,28)"><text x="5" data-z-index="1" y="16" style="color:#4a4a4a;font-size:11px;font-weight:normal;fill:#4a4a4a;"><tspan x="5" y="16" class="highcharts-text-outline" fill="#FFFFFF" stroke="#FFFFFF" stroke-width="2px" stroke-linejoin="round" style="">HCPN</tspan><tspan x="5" y="16">HCPN</tspan></text></g></g><text x="300" text-anchor="middle" class="highcharts-title" data-z-index="4" style="color:#333333;font-size:18px;fill:#333333;" y="24"></text><text x="300" text-anchor="middle" class="highcharts-subtitle" data-z-index="4" style="color:#666666;fill:#666666;" y="24"></text><text x="10" text-anchor="start" class="highcharts-caption" data-z-index="4" style="color:#666666;fill:#666666;" y="347"></text><g class="highcharts-legend" data-z-index="7" transform="translate(143,308)"><rect fill="#ffffff" class="highcharts-legend-box" rx="0" ry="0" x="0" y="0" width="313" height="27" visibility="visible"></rect><g data-z-index="1"><g><g class="highcharts-legend-item highcharts-scatter-series highcharts-color-undefined highcharts-series-0" data-z-index="1" transform="translate(8,3)"><path fill="none" d="M 0 13 L 16 13" class="highcharts-graph"></path><path fill="#ddd" d="M 8 17 A 4 4 0 1 1 8.003999999333336 16.99999800000017 Z" class="highcharts-point" opacity="1"></path><text x="21" style="color:#414141;cursor:pointer;font-size:14px;font-weight:normal;fill:#414141;" text-anchor="start" data-z-index="2" y="17"><tspan>Other models</tspan></text></g><g class="highcharts-legend-item highcharts-line-series highcharts-color-undefined highcharts-series-1" data-z-index="1" transform="translate(133.046875,3)"><path fill="none" d="M 0 13 L 16 13" class="highcharts-graph" stroke="#21ccc7" stroke-width="2"></path><path fill="#21ccc7" d="M 8 17 A 4 4 0 1 1 8.003999999333336 16.99999800000017 Z" class="highcharts-point" opacity="1"></path><text x="21" y="17" style="color:#414141;cursor:pointer;font-size:14px;font-weight:normal;fill:#414141;" text-anchor="start" data-z-index="2"><tspan>Models with highest J&amp;F</tspan></text></g></g></g></g><g class="highcharts-axis-labels highcharts-xaxis-labels" data-z-index="7"><text x="134.44145144573" style="color:#666666;cursor:default;font-size:11px;fill:#666666;" text-anchor="middle" transform="translate(0,0)" y="295" opacity="1"><tspan>Jan '19</tspan></text><text x="235.70527952281" style="color:#666666;cursor:default;font-size:11px;fill:#666666;" text-anchor="middle" transform="translate(0,0)" y="295" opacity="1"><tspan>Jul '19</tspan></text><text x="338.64751359012" style="color:#666666;cursor:default;font-size:11px;fill:#666666;" text-anchor="middle" transform="translate(0,0)" y="295" opacity="1"><tspan>Jan '20</tspan></text><text x="440.4708103306" style="color:#666666;cursor:default;font-size:11px;fill:#666666;" text-anchor="middle" transform="translate(0,0)" y="295" opacity="1"><tspan>Jul '20</tspan></text><text x="543.41304439791" style="color:#666666;cursor:default;font-size:11px;fill:#666666;" text-anchor="middle" transform="translate(0,0)" y="295" opacity="1"><tspan>Jan '21</tspan></text></g><g class="highcharts-axis-labels highcharts-yaxis-labels" data-z-index="7"><text x="46" style="color:#666666;cursor:default;font-size:11px;fill:#666666;" text-anchor="end" transform="translate(0,0)" y="281" opacity="1">30</text><text x="46" style="color:#666666;cursor:default;font-size:11px;fill:#666666;" text-anchor="end" transform="translate(0,0)" y="228" opacity="1">40</text><text x="46" style="color:#666666;cursor:default;font-size:11px;fill:#666666;" text-anchor="end" transform="translate(0,0)" y="174" opacity="1">50</text><text x="46" style="color:#666666;cursor:default;font-size:11px;fill:#666666;" text-anchor="end" transform="translate(0,0)" y="121" opacity="1">60</text><text x="46" style="color:#666666;cursor:default;font-size:11px;fill:#666666;" text-anchor="end" transform="translate(0,0)" y="68" opacity="1">70</text><text x="46" style="color:#666666;cursor:default;font-size:11px;fill:#666666;" text-anchor="end" transform="translate(0,0)" y="15" opacity="1">80</text></g></svg>